HIERARCHY
ROOT Hips
{
 OFFSET 0.000000 0.000000 0.000000
 CHANNELS 6 Xposition Yposition Zposition Yrotation Xrotation Zrotation
 JOINT Chest
 {
  OFFSET 0.000000 9.303000 0.001900
  CHANNELS 3 Yrotation Xrotation Zrotation
  JOINT Chest2
  {
   OFFSET 0.000000 9.301100 -0.003900
   CHANNELS 3 Yrotation Xrotation Zrotation
   JOINT Chest3
   {
    OFFSET 0.000000 9.262800 0.000000
    CHANNELS 3 Yrotation Xrotation Zrotation
    JOINT Chest4
    {
     OFFSET 0.000000 9.253300 0.000000
     CHANNELS 3 Yrotation Xrotation Zrotation
     JOINT Neck
     {
      OFFSET 0.000000 14.010300 0.000000
      CHANNELS 3 Yrotation Xrotation Zrotation
      JOINT Head
      {
       OFFSET 0.000000 8.657600 -0.008300
       CHANNELS 3 Yrotation Xrotation Zrotation
       End Site
       {
        OFFSET 0.000000 16.540200 -0.004400
       }
      }
     }
     JOINT RightCollar
     {
      OFFSET -2.834100 9.267700 0.000000
      CHANNELS 3 Yrotation Xrotation Zrotation
      JOINT RightShoulder
      {
       OFFSET -13.135200 0.000000 0.000000
       CHANNELS 3 Yrotation Xrotation Zrotation
       JOINT RightElbow
       {
        OFFSET 0.000000 -28.893500 0.000000
        CHANNELS 3 Yrotation Xrotation Zrotation
        JOINT RightWrist
        {
         OFFSET 0.000000 -23.344000 0.000000
         CHANNELS 3 Yrotation Xrotation Zrotation
         End Site
         {
          OFFSET 0.000000 -17.223000 0.000000
         }
        }
       }
      }
     }
     JOINT LeftCollar
     {
      OFFSET 2.834100 9.267700 0.000000
      CHANNELS 3 Yrotation Xrotation Zrotation
      JOINT LeftShoulder
      {
       OFFSET 13.135200 0.000000 0.000000
       CHANNELS 3 Yrotation Xrotation Zrotation
       JOINT LeftElbow
       {
        OFFSET 0.000000 -28.893500 0.000000
        CHANNELS 3 Yrotation Xrotation Zrotation
        JOINT LeftWrist
        {
         OFFSET 0.000000 -23.344000 0.000000
         CHANNELS 3 Yrotation Xrotation Zrotation
         End Site
         {
          OFFSET 0.000000 -17.223000 0.000000
         }
        }
       }
      }
     }
    }
   }
  }
 }
 JOINT RightHip
 {
  OFFSET -7.547200 -0.009500 -0.001000
  CHANNELS 3 Yrotation Xrotation Zrotation
  JOINT RightKnee
  {
   OFFSET 0.000000 -39.762800 0.000900
   CHANNELS 3 Yrotation Xrotation Zrotation
   JOINT RightAnkle
   {
    OFFSET 0.000000 -38.588200 0.001600
    CHANNELS 3 Yrotation Xrotation Zrotation
    JOINT RightToe
    {
     OFFSET 0.000000 -4.693300 10.419700
     CHANNELS 3 Yrotation Xrotation Zrotation
     End Site
     {
      OFFSET 0.000000 -1.379900 5.669300
     }
    }
   }
  }
 }
 JOINT LeftHip
 {
  OFFSET 7.547200 -0.009500 -0.001000
  CHANNELS 3 Yrotation Xrotation Zrotation
  JOINT LeftKnee
  {
   OFFSET 0.000000 -39.762800 0.000900
   CHANNELS 3 Yrotation Xrotation Zrotation
   JOINT LeftAnkle
   {
    OFFSET 0.000000 -38.588200 0.001600
    CHANNELS 3 Yrotation Xrotation Zrotation
    JOINT LeftToe
    {
     OFFSET 0.000000 -4.693300 10.419700
     CHANNELS 3 Yrotation Xrotation Zrotation
     End Site
     {
      OFFSET 0.000000 -1.379900 5.669300
     }
    }
   }
  }
 }
}
MOTION
Frames: 13
Frame Time: 0.008333
3.186802 45.853101 9.427902 168.350959 -18.827857 2.161555 -2.676203 11.537039 4.094884 -0.242154 0.873841 0.357678 -0.409545 1.490481 0.607538 -2.444195 10.463977 4.056586 -0.243322 14.576590 -0.216512 -0.107360 -10.407049 -0.189461 8.631671 3.909268 -7.918550 8.986132 -29.088595 -18.900782 49.411076 -82.639926 -32.214441 -8.517122 -12.482396 -31.022391 -18.714103 -4.724272 -8.086717 -4.232896 -30.355366 17.018831 39.733500 -42.576601 -72.088199 11.366263 -3.860454 17.826918 -0.485698 -70.324146 -3.206263 -170.440395 81.880147 -171.550114 -8.001100 -25.750306 10.253497 0.055285 -0.128083 0.017850 -3.812103 -66.785562 21.591645 83.674004 77.503612 81.266190 -11.117124 -6.868251 -1.044329 0.013687 0.426025 0.001015
3.179839 45.852677 9.421966 168.303042 -18.782488 2.158161 -2.692620 11.512932 4.092089 -0.243333 0.869599 0.356251 -0.411711 1.483401 0.605294 -2.539767 10.415301 4.035067 -0.137774 14.525406 -0.225080 -0.068637 -10.488514 -0.206127 8.449487 3.851372 -7.963187 8.429136 -28.602981 -18.390560 48.735348 -83.129142 -30.747247 -8.830139 -12.478847 -30.523448 -18.457966 -4.670113 -7.998586 -4.165890 -29.796467 16.928359 39.689687 -44.355981 -72.128945 11.131526 -4.076980 17.616762 -0.482113 -70.366800 -3.177670 -170.624184 81.897118 -171.726861 -8.002352 -25.703236 10.250127 0.037647 -0.143396 0.010117 -3.763179 -66.833806 21.574991 83.734873 77.479348 81.369503 -11.125047 -6.895458 -1.055035 0.026603 0.434933 -0.002881
3.178949 45.853112 9.409917 168.222636 -18.772295 2.146695 -2.643082 11.516129 4.118796 -0.280456 0.870535 0.351802 -0.376105 1.477361 0.607243 -2.623705 10.383196 4.016596 -0.073940 14.472718 -0.231968 -0.024431 -10.550791 -0.223400 8.260476 3.761473 -8.026665 7.950722 -28.062424 -17.897568 46.310749 -83.565334 -27.632478 -9.173618 -12.440589 -30.042647 -18.239819 -4.657299 -7.896873 -4.139682 -29.259887 16.909233 39.614509 -45.684825 -72.200891 10.994921 -4.363573 17.415788 -0.491378 -70.370047 -3.092116 -170.793837 81.911934 -171.893365 -7.990634 -25.654944 10.248169 0.040696 -0.166006 0.006777 -3.745651 -66.844144 21.616540 83.879372 77.464958 81.577825 -11.150140 -6.938046 -1.089109 0.063438 0.443141 0.001073
3.175647 45.851930 9.399014 168.200034 -18.745371 2.141263 -2.707590 11.509156 4.109176 -0.263939 0.863560 0.352247 -0.396884 1.470003 0.601952 -2.627465 10.356805 4.009525 -0.029418 14.430624 -0.241169 0.022459 -10.540896 -0.236241 8.082159 3.661640 -8.104441 7.610888 -27.471755 -17.466972 42.099904 -83.909895 -22.870840 -9.516783 -12.371750 -29.604975 -18.052753 -4.670157 -7.820292 -4.131657 -28.756366 16.978654 39.473786 -46.554902 -72.293040 10.938937 -4.684791 17.225137 -0.483832 -70.394097 -3.076983 -170.898403 81.914443 -171.996221 -7.988147 -25.614640 10.248536 0.042897 -0.183381 0.008389 -3.751892 -66.873176 21.623654 83.960689 77.449714 81.692042 -11.154049 -6.949094 -1.106738 0.076096 0.439593 0.001151
3.173083 45.848436 9.392607 168.147001 -18.683160 2.147124 -2.739301 11.465932 4.103768 -0.246747 0.856159 0.351626 -0.417790 1.461129 0.597644 -2.629974 10.326965 4.002071 0.014990 14.406126 -0.252271 0.070842 -10.596637 -0.260442 7.925185 3.566277 -8.179774 7.453747 -26.841705 -17.135307 36.350205 -84.116385 -16.734730 -9.825670 -12.276869 -29.229353 -17.861487 -4.702578 -7.748616 -4.125748 -28.289344 17.086740 39.222449 -46.984618 -72.372983 10.953065 -5.007782 17.039224 -0.454593 -70.458741 -3.049028 -170.973987 81.921541 -172.072477 -7.993177 -25.567060 10.243655 0.042479 -0.193398 0.012259 -3.754389 -66.934639 21.653232 84.049264 77.437139 81.806330 -11.149230 -6.955421 -1.124990 0.086746 0.434358 0.000515
3.170798 45.844198 9.387334 168.106287 -18.610121 2.156904 -2.758883 11.405100 4.096861 -0.233773 0.850610 0.351115 -0.432703 1.451018 0.593693 -2.649510 10.291202 3.993908 0.056376 14.398083 -0.264688 0.117625 -10.627812 -0.286293 7.782340 3.478016 -8.241327 7.480494 -26.183939 -16.911339 29.727849 -84.148319 -9.890484 -10.076002 -12.164108 -28.925935 -17.674085 -4.752965 -7.679263 -4.101128 -27.862249 17.212724 38.827052 -47.004319 -72.409893 11.025760 -5.303855 16.856580 -0.378817 -70.533613 -3.072984 -171.087221 81.928615 -172.177553 -8.008086 -25.530262 10.243853 0.041148 -0.207167 0.015617 -3.756571 -67.006018 21.673577 84.113821 77.428137 81.886477 -11.141170 -6.956629 -1.137698 0.092624 0.428945 -0.000973
3.169521 45.839883 9.382744 168.090712 -18.532500 2.161581 -2.794107 11.338109 4.087137 -0.196037 0.844323 0.353661 -0.446861 1.445386 0.591137 -2.694217 10.242708 3.981997 0.094402 14.404391 -0.277213 0.153186 -10.602887 -0.293036 7.647402 3.393648 -8.284417 7.658784 -25.515803 -16.782841 23.084571 -83.999576 -3.154269 -10.251560 -12.025421 -28.707883 -17.493287 -4.820947 -7.607900 -4.042395 -27.472149 17.341571 38.274737 -46.651911 -72.387641 11.143893 -5.549052 16.687344 -0.294109 -70.607431 -3.116488 -171.036035 81.932124 -172.118858 -8.023924 -25.512847 10.259789 0.043604 -0.203208 0.017102 -3.761105 -67.082667 21.687689 84.141288 77.424789 81.918618 -11.140847 -6.956882 -1.142411 0.096811 0.425896 -0.000494
3.169706 45.836797 9.376458 168.069718 -18.466745 2.169772 -2.806688 11.281153 4.078178 -0.215471 0.837582 0.352453 -0.420079 1.440659 0.591678 -2.701354 10.220233 3.976671 0.101463 14.388841 -0.293956 0.181639 -10.578912 -0.294045 7.485816 3.280049 -8.316922 7.944182 -24.860030 -16.725735 17.099991 -83.689421 2.844138 -10.337890 -11.841015 -28.581739 -17.350604 -4.940007 -7.525593 -3.954051 -27.108906 17.465667 37.573171 -45.978882 -72.285393 11.293628 -5.726378 16.539082 -0.248985 -70.675591 -3.130742 -171.010879 81.928861 -172.097059 -8.002920 -25.479851 10.255069 0.044017 -0.205189 0.020836 -3.782416 -67.146313 21.693508 84.209467 77.408850 82.011792 -11.133841 -6.959643 -1.159834 0.095187 0.423909 -0.006804
3.172008 45.836286 9.365807 168.057774 -18.432766 2.174954 -2.821506 11.262226 4.064800 -0.254935 0.830282 0.341236 -0.416825 1.415039 0.588060 -2.699913 10.162228 3.973848 0.144099 14.430678 -0.306621 0.213253 -10.563357 -0.306670 7.362883 3.218105 -8.321314 8.287388 -24.227545 -16.713237 12.220221 -83.255573 7.700773 -10.345765 -11.593314 -28.535481 -17.183404 -5.028422 -7.445428 -3.865907 -26.753600 17.580882 36.759547 -45.043898 -72.081391 11.451953 -5.824364 16.416619 -0.226590 -70.711170 -3.132202 -171.004667 81.918534 -172.098541 -7.978080 -25.444220 10.237547 0.033187 -0.220625 0.033947 -3.807910 -67.178657 21.657393 84.262751 77.371946 82.129004 -11.103161 -6.955701 -1.198295 0.107484 0.413404 -0.028091
3.176305 45.833841 9.365319 168.058007 -18.339212 2.157166 -2.834162 11.190596 4.072308 -0.248312 0.817879 0.341549 -0.408352 1.405705 0.595277 -2.735858 10.099016 3.959441 0.169907 14.456194 -0.326349 0.251853 -10.549055 -0.372801 7.228666 3.138784 -8.315519 8.640786 -23.623336 -16.723987 8.591309 -82.738730 11.311610 -10.307568 -11.257969 -28.549298 -17.041146 -5.154001 -7.349667 -3.817408 -26.383151 17.684859 35.888049 -43.903534 -71.766892 11.598564 -5.838099 16.327664 -0.281085 -70.803474 -3.046270 -170.824599 81.921768 -171.934161 -7.973952 -25.410830 10.228730 0.038197 -0.218495 0.050085 -3.865608 -67.271575 21.708899 84.249070 77.380661 82.144657 -11.113737 -6.959916 -1.221086 0.134731 0.425032 -0.017099
3.174147 45.832176 9.366847 168.079606 -18.228443 2.173950 -2.854444 11.096164 4.043924 -0.247740 0.808220 0.339455 -0.423802 1.389268 0.593906 -2.726138 10.091213 3.968019 0.170882 14.426668 -0.362300 0.264199 -10.524665 -0.398840 7.074633 3.010079 -8.309065 8.969251 -23.051631 -16.742026 6.045730 -82.179443 13.881449 -10.240467 -10.815923 -28.606851 -16.923688 -5.349496 -7.233097 -3.843089 -25.979264 17.776391 35.003694 -42.605738 -71.340939 11.719681 -5.769434 16.275061 -0.332629 -70.917911 -2.995104 -170.634913 81.921536 -171.794416 -7.998261 -25.387208 10.228945 0.061719 -0.204453 0.068273 -3.843954 -67.388048 21.621159 84.256816 77.346928 82.174231 -11.067012 -6.953567 -1.223231 0.085960 0.430807 -0.024137
3.170464 45.832328 9.368009 168.118820 -18.122023 2.198956 -2.881837 11.003906 4.002998 -0.246699 0.798188 0.337317 -0.418825 1.364847 0.574430 -2.752236 10.040112 3.984269 0.184406 14.444121 -0.395587 0.267159 -10.504158 -0.428753 6.937106 2.936687 -8.270517 9.250951 -22.510483 -16.755206 4.268119 -81.621259 15.747510 -10.144179 -10.274053 -28.695681 -16.790022 -5.503648 -7.107808 -3.957266 -25.536062 17.846325 34.134287 -41.189121 -70.801902 11.800304 -5.613705 16.252497 -0.378635 -71.027550 -2.973944 -170.472144 81.919623 -171.685752 -8.022250 -25.368453 10.228509 0.043129 -0.195580 0.076657 -3.696116 -67.517942 21.360646 84.163965 77.302466 82.174191 -10.981773 -6.928989 -1.232595 0.034076 0.425612 -0.050006
3.169518 45.834039 9.369872 168.160293 -18.017502 2.208802 -2.906419 10.909130 3.980265 -0.240195 0.792063 0.333026 -0.422875 1.350543 0.574698 -2.748004 9.916928 3.968862 0.170662 14.513899 -0.417446 0.265392 -10.487723 -0.464861 6.781467 2.927791 -8.195113 9.468210 -21.989722 -16.753007 2.945917 -81.102707 17.237653 -10.020653 -9.658539 -28.806811 -16.682292 -5.603158 -6.968082 -4.144945 -25.059720 17.877758 33.286259 -39.679264 -70.147506 11.835850 -5.362647 16.249427 -0.465319 -71.131011 -2.912689 -170.329383 81.922632 -171.592248 -8.040418 -25.348177 10.225116 0.053669 -0.188301 0.085106 -3.549119 -67.647558 21.127955 84.041230 77.276131 82.147702 -10.931549 -6.905424 -1.239651 0.001894 0.422085 -0.065894
